<svg xmlns="http://www.w3.org/2000/svg" width="40" height="40"><path d="M 37.788 20 C 38.535 20.001 39.279 19.901 40 19.705 C 39.429 19.584 38.847 19.524 38.264 19.524 L 28.371 19.524 C 26.737 19.524 25.212 19.056 23.924 18.247 C 24.214 16.54 25.029 14.967 26.255 13.745 L 32.578 7.422 C 33.107 6.894 33.562 6.298 33.933 5.649 C 33.444 5.968 32.99 6.336 32.578 6.749 L 25.583 13.745 C 24.472 14.859 23.068 15.636 21.535 15.986 C 20.533 14.574 19.997 12.885 20 11.153 L 20 2.212 C 20 1.465 19.901 0.721 19.704 0 C 19.586 0.56 19.524 1.141 19.524 1.736 L 19.524 11.629 C 19.524 13.263 19.056 14.788 18.247 16.076 C 16.54 15.786 14.967 14.971 13.744 13.745 L 7.422 7.422 C 6.894 6.893 6.298 6.437 5.649 6.067 C 5.968 6.555 6.336 7.009 6.749 7.422 L 13.744 14.417 C 14.859 15.528 15.636 16.931 15.986 18.465 C 14.573 19.466 12.884 20.003 11.153 20 L 2.212 20 C 1.446 20 0.705 20.103 0 20.295 C 0.56 20.413 1.141 20.476 1.736 20.476 L 11.629 20.476 C 13.263 20.476 14.788 20.944 16.076 21.753 C 15.785 23.46 14.971 25.033 13.745 26.255 L 7.422 32.578 C 6.893 33.106 6.437 33.702 6.067 34.351 C 6.555 34.032 7.009 33.664 7.422 33.251 L 14.417 26.255 C 15.528 25.141 16.931 24.364 18.465 24.014 C 19.466 25.427 20.003 27.116 20 28.847 L 20 37.788 C 20 38.554 20.103 39.295 20.295 40 C 20.413 39.44 20.475 38.859 20.475 38.264 L 20.475 28.371 C 20.475 26.737 20.944 25.212 21.753 23.924 C 23.46 24.214 25.033 25.029 26.255 26.255 L 32.578 32.578 C 33.106 33.107 33.702 33.563 34.351 33.933 C 34.032 33.445 33.663 32.991 33.251 32.578 L 26.255 25.583 C 25.141 24.472 24.364 23.069 24.014 21.535 C 25.426 20.534 27.115 19.997 28.846 20 Z" fill="#0000FF"></path></svg>
